<svg xmlns="http://www.w3.org/2000/svg" viewBox="0 0 165 210"><defs><style>.cls-1{fill:none;stroke:#e6e125;stroke-miterlimit:10;stroke-width:2px;}</style></defs><title>char_chips</title><g id="Calque_3" data-name="Calque 3"><path class="cls-1" d="M21,52V72l5,20v58l-5,25v19l7-5,8,5,6-5,8,5,9-3,7,5,7-7s9,6,8,7,7-6,7-6l7,6,8-7,7,7,8-5,7,5,8-7,8,7V175l-6-23V92l6-21s1-19,0-19-8,6-8,6l-7-6-7,6-8-6-7,6-8-6-8,7s-6-9-7-7-8,8-8,8l-7-8-7,7-8-7-7,6-8-6-7,7Z"/><line class="cls-1" x1="116" y1="72" x2="21" y2="72"/><line class="cls-1" x1="37" y1="148" x2="25.69" y2="151.54"/><polyline class="cls-1" points="115 151 123 151 135.28 153.05"/><path class="cls-1" d="M21,175c0-1,89,0,89,0"/><line class="cls-1" x1="118" y1="94" x2="135" y2="94"/><path class="cls-1" d="M76,92s-26,1-23,30c2.4,23.18,25.24,16.33,34.31,12.65a3.51,3.51,0,0,0,1.74-5c-2.37-4.2-6-11.28-6-14.67C83,110,82,91,76,92Z"/><path class="cls-1" d="M84.28,120C85,119,94,97,100,96s14,13,13,18,1,25-29,37-19.68-13.23-19.68-13.23"/><path class="cls-1" d="M64,102s-3,3-3,6"/><path class="cls-1" d="M65,108s-2,5-2,7"/><path class="cls-1" d="M105,111a26.87,26.87,0,0,1,0,10"/><path class="cls-1" d="M71,148s7,0,11-4"/></g></svg>