<svg xmlns="http://www.w3.org/2000/svg" viewBox="0 0 165 210"><defs><style>.cls-1{fill:none;stroke:#e6e125;stroke-miterlimit:10;stroke-width:2px;}</style></defs><title>char_shuriken</title><g id="Calque_3" data-name="Calque 3"><path class="cls-1" d="M117.48,64.38c-.92.68-1.11.78-1,.59s-.38-.66-.86-.66-1.48.47-3.42,1.9L100.4,74.79,89.62,82.66c-1.87,1.37-2.28,1.88-2.28,2.82a1.15,1.15,0,0,0,.22.87c.13.14.17.22.1.18s-.2-.06.31,1.06a7.78,7.78,0,0,1,.87,4,7.62,7.62,0,0,1-1,4.09,9.21,9.21,0,0,1-4.64,4.18,7.43,7.43,0,0,1-3.24.55,7.72,7.72,0,0,1-3.88-.9c-1.1-.57-1.08-.56-1-.37s0,.06-.15-.06c-.3-.27-.34-.39,0-.17s.18.14,0,0-.19-.17-.25-.14a6.34,6.34,0,0,1-1.5-2.11,8.25,8.25,0,0,1-.83-3.75,8.34,8.34,0,0,1,1.71-5.35c.48-.71.86-1.31.86-1.33s-.73-.6-1.62-1.27c-1.43-1.09-2-1.53-1.48-1.26.22.12,0-.1-.58-.52-.27-.21-.54-.35-.6-.32s-.15,0-.2-.06,0-.1.09,0,.13.07,0-.11-.24-.17-.32-.14a.19.19,0,0,1-.23-.07c-.06-.08,0-.09.08,0s.14.07,0-.09-.42-.28-.3-.08,0,.12-.19-.09-.13-.18,0-.09.15.08,0-.09-.42-.28-.3-.08,0,.13-.19-.08-.14-.19,0-.1.15.09,0-.09-.41-.27-.29-.06,0,.12,0,.06a.37.37,0,0,1-.1-.23c0-.08-.1-.14-.2-.14a.53.53,0,0,1-.29-.1c-.06-.06,0-.07.08,0s.15.09,0-.09-.42-.28-.3-.08,0,.13-.18-.08-.14-.19,0-.09.15.08,0-.1-.42-.27-.3-.08,0,.13-.19-.08-.14-.18,0-.09.15.08,0-.09-.41-.27-.29-.06,0,.09,0,0S67,80.14,67,80.1s-.16-.37-.31-.37-.07.07,0,.14,0,.12,0,.06a.38.38,0,0,1-.11-.23c0-.09-.09-.14-.19-.14a.43.43,0,0,1-.29-.11c-.06-.06,0-.07.08,0s.15.08,0-.09-.42-.28-.3-.08,0,.12-.19-.08-.14-.19,0-.1.15.08,0-.09-.42-.27-.29-.06,0,.12,0,.06a.37.37,0,0,1-.1-.23c0-.08-.11-.14-.23-.14s-.24-.08-.24-.17a.19.19,0,0,0-.19-.18.48.48,0,0,1-.29-.1c-.06-.06,0-.07.08,0s.15.08,0-.1-.42-.28-.3-.08,0,.13-.19-.08-.14-.19,0-.09.15.08,0-.1-.42-.27-.31-.08,0,.13-.18-.08-.14-.18,0-.1,0,0-.17-.21-.41-.28-.49-.24a.22.22,0,0,1-.22-.09c-.06-.08,0-.09.08,0s.14.07,0-.1-.23-.18-.31-.14a.22.22,0,0,1-.24-.07c0-.08,0-.1.09,0s.14.07,0-.09-.42-.28-.31-.08,0,.13-.18-.08-.14-.19,0-.1.15.08,0-.09-.42-.27-.29-.06,0,.1-.06,0-.11-.13-.08-.16-.15-.37-.3-.37-.07.07,0,.14,0,.11,0,0a.36.36,0,0,1-.11-.23c0-.08-.09-.14-.2-.14a.46.46,0,0,1-.29-.1c0-.06,0-.07.08,0s.16.08,0-.1-.42-.28-.31-.08,0,.13-.18-.08-.14-.18,0-.1,0,0-.17-.21-.41-.28-.49-.25a.19.19,0,0,1-.22-.08c-.06-.08,0-.09.08,0s.14.07,0-.11-.23-.17-.31-.14a.2.2,0,0,1-.23-.06c-.06-.09,0-.1.08,0s.14.07,0-.09-.42-.27-.29-.06,0,.1-.11,0-.26-.3,0-.18.09,0,0-.1-.41-.27-.29-.06,0,.11-.1,0-.27-.3,0-.17.1,0,0-.11-.42-.27-.29-.06,0,.12,0,.06a.38.38,0,0,1-.11-.23c0-.08-.1-.14-.23-.14s-.23-.08-.23-.17a.2.2,0,0,0-.2-.18.46.46,0,0,1-.29-.1c-.06-.06,0-.07.08,0s.15.08,0-.1-.41-.26-.29,0,0,.1-.1,0-.27-.3,0-.17.1,0,0-.1-.42-.27-.29-.06,0,.1-.1,0-.27-.31-.05-.18.09,0,0-.1-.42-.27-.29-.06,0,.12,0,.06a.37.37,0,0,1-.1-.23c0-.09-.11-.14-.23-.14s-.24-.08-.24-.18a.19.19,0,0,0-.19-.17.45.45,0,0,1-.29-.11c-.06,0,0-.06.08,0s.15.08,0-.09-.42-.27-.29-.06,0,.11-.1,0-.27-.3-.05-.17.09,0,0-.11-.42-.26-.29-.06,0,.12,0,.06a.43.43,0,0,1-.1-.23c0-.08-.11-.14-.23-.14s-.24-.08-.24-.17a.19.19,0,0,0-.19-.18.44.44,0,0,1-.29-.1c-.06-.06,0-.07.08,0s.15.08,0-.1-.42-.26-.29-.05,0,.1-.1,0-.27-.31,0-.18.09,0,0-.1-.42-.27-.29-.06,0,.11,0,.06a.46.46,0,0,1-.1-.24c0-.08-.09-.13-.2-.13a.59.59,0,0,1-.35-.18c-.12-.14-.11-.14.09,0s.22.16.06,0-.23-.19-.31-.15a.2.2,0,0,1-.23-.07c-.06-.08,0-.1.08,0s.14.07,0-.09-.42-.27-.29-.06,0,.11-.1,0-.27-.3,0-.17.09,0,0-.11-.42-.27-.29-.06,0,.11-.11,0-.26-.3,0-.17.09,0,0-.11-.41-.26-.29-.05,0,.11,0,.05a.34.34,0,0,1-.1-.23c0-.08-.11-.14-.24-.14s-.23-.08-.23-.17a.2.2,0,0,0-.2-.18.46.46,0,0,1-.29-.1c0-.06,0-.07.09,0s.15.08,0-.09-.42-.27-.29-.06,0,.1-.11,0-.26-.31-.05-.18.1,0,0-.1-.41-.27-.29-.06,0,.12,0,.06a.37.37,0,0,1-.1-.23c0-.09-.1-.13-.2-.13a1,1,0,0,1-.51-.27l-.34-.29.41.26.4.25-.33-.3c-.2-.15-.4-.27-.44-.23a2.79,2.79,0,0,1-.91-.52l-.81-.6v.55c0,.31,0,.46-.07.35-.14-.55-.6.19-.7,1.12,0,.33.11,2.08.31,3.9s.51,4.78.7,6.57c.8,7.47,1.06,9.94,1.39,13,1,9.84,1,9.48,1.35,10.17.27.51.65.92.74.77s.14.3.21.82a5.53,5.53,0,0,0,.2,1,10.41,10.41,0,0,0,1.4-.09,8.88,8.88,0,0,1,5.5.94c.9.46,2.25,1.55,2.14,1.73a1.74,1.74,0,0,0,.28.66,9.54,9.54,0,0,1,1.06,3.26,9.14,9.14,0,0,1-1.17,5.55A11.2,11.2,0,0,1,57,116.09a8.07,8.07,0,0,1-3.84,2.28,10.29,10.29,0,0,1-4.45.06,11.93,11.93,0,0,1-2.82-1.26l-.37-.26.29.35.29.33-.33-.29a8.92,8.92,0,0,1-.86-1,13.41,13.41,0,0,1-1.57-3l-.31-.67-.4.17c-.48.2-.57.21-.49.07s-.17-.22-.46-.36a1.86,1.86,0,0,0-1.21-.2c-.71.06-1,.19-14,5.88-2.94,1.29-7.19,3.16-9.45,4.14-5.56,2.43-6.61,2.94-7,3.46s-.52,1-.13,1.19c.21.08.14.14-.49.43l-.73.33.57.25c1.58.71,32.16,14.24,33.14,14.67a7.19,7.19,0,0,0,1.17.45s.36-.68.76-1.46a8.22,8.22,0,0,1,1.54-2.29,8.82,8.82,0,0,1,6.16-2.93,9,9,0,0,1,6,2.06c.35.32.56.55.47.51s-.14,0,0,.14A10,10,0,0,1,59.68,142a9.71,9.71,0,0,1,0,4.19A9,9,0,0,1,51.52,153a14.22,14.22,0,0,0-1.6.24,2.45,2.45,0,0,0-1.66,2.08c-.08.44-2.65,23.49-3.26,29.32-.22,2-.15,2.69.33,3.24.32.37.37.38.45.19a10.7,10.7,0,0,1-.1,2.44c-.06.46,0,.55.09.47s27.63-20.14,29.76-21.71l.84-.61-.75-1.15A8,8,0,0,1,73.89,162a6.4,6.4,0,0,1,.33-2.67,9,9,0,0,1,6.72-6,7.35,7.35,0,0,1,3.49,0,8.85,8.85,0,0,1,4.41,2.34c.25.29.28.34.07.16l-.29-.23.25.37a9.28,9.28,0,0,1,.38,9.2,7.09,7.09,0,0,0-.56,1.62c-.06.58.23,1.47.44,1.34s.14.07-.08.31-.15.26-.08.31,4.07,3,8.91,6.58l12.53,9.2c5.58,4.1,8.44,6.17,8.48,6.12s-.17-2.24-.77-7.79c-.13-1.22-.29-2.68-.35-3.25s-.22-2-.34-3.25-.29-2.68-.35-3.25-.22-2-.35-3.24-.29-2.7-.35-3.31-.2-1.81-.29-2.67-.22-2.06-.29-2.66-.22-2-.35-3.19-.27-2.72-.36-3.48-.15-1.46-.17-1.54-.24-.15-.8-.12-.75,0-.75-.1-.63-.65-1-.78a16.32,16.32,0,0,0-1.62-.26,9.78,9.78,0,0,1-4.47-1.45c-.36-.24-.38-.24-.23,0s.16.22,0,.06a5.87,5.87,0,0,1-.71-.82,8.6,8.6,0,0,1-.94-9.33,8.73,8.73,0,0,1,5.87-4.71,10,10,0,0,1,4.89.21,7.79,7.79,0,0,1,2.91,1.69c.33.32.52.52.43.48s0,.11.16.37c.73,1,1.13,1.43,1.24,1.4a4.31,4.31,0,0,1,.71,1.16,5.84,5.84,0,0,0,.71,1.2c.09,0,1.44-.58,8.24-3.58,1.61-.69,5.68-2.48,9.05-4l10.9-4.78c2.62-1.15,4.93-2.17,5.14-2.25s.37-.23.37-.32-.32-.31-.72-.48c-1.95-.87-3.48-1.66-2.67-1.37.15.06.14,0-.07-.22-.38-.42-1.13-.8-4.6-2.33l-8.7-3.85c-16.81-7.46-16.55-7.34-17.16-7.49a2.32,2.32,0,0,0-2,.3,9.21,9.21,0,0,0-1.2,1.38,11.27,11.27,0,0,1-2.6,2.61,9,9,0,0,1-9.65.07c-.23-.16-.39-.23-.34-.15s-.19-.13-.51-.48a8.08,8.08,0,0,1-1.13-1.7,8.87,8.87,0,0,1,5.52-12.48,7.26,7.26,0,0,1,2.67-.26,15.74,15.74,0,0,1,2.1.09c.29.07.3,0,.38-.54.09-.75.74-6.65,2.51-22.63.76-6.89,1.41-12.81,1.45-13.14s0-.61,0-.6A7.05,7.05,0,0,0,117.48,64.38Z"/></g></svg>