<svg xmlns="http://www.w3.org/2000/svg" viewBox="0 0 165 210"><defs><style>.cls-1,.cls-2{fill:none;stroke:#da3c8f;stroke-miterlimit:10;}.cls-1{stroke-width:2px;}.cls-2{stroke-width:3px;}</style></defs><title>char_turboninja</title><g id="Calque_3" data-name="Calque 3"><path class="cls-1" d="M73.89,24.58,69.66,54.2A36.4,36.4,0,0,0,80,74.89c9.41,9.41,42.8,0,42.8,0s2.82-1.41,9.4-8.93,5.17-34.8,5.17-39-11.28-9.88-16.46-11.76-32.91-3.76-40,0S75.53,21.05,73.89,24.58Z"/><path class="cls-2" d="M152,22.23c2.82,1.41,4.7,8.46,4.23,11.28-.17,1-2.63,1.85-5.71,2.5a120.87,120.87,0,0,1-13,1.73v-9.4Z"/><path class="cls-2" d="M154.77,39.16c1.33,3.32-4.7,10.34-4.7,10.34L137.5,42.92l-.13-5.18S152.89,34.45,154.77,39.16Z"/><path class="cls-1" d="M117,133l2.27-20c-.5,0-1.07-.42-1.68-1.14"/><path class="cls-1" d="M81.18,76.31s-14.58,6.11-7.06,31v18.34s6.12-.47,9.88,3.29,6.11,9.41,4.23,18.81a25.52,25.52,0,0,1-1.07,3.94,1.79,1.79,0,0,0,1.21,2.36,18.72,18.72,0,0,0,9.74.29"/><path class="cls-1" d="M121.38,79.13a10.89,10.89,0,0,0-2.66,0l.78,0s-1.41.94-4.7,6.58c-2.21,3.79-2.09,10.77-1.48,15.93,1.24,4.48,3,8.36,4.51,10.21A15.72,15.72,0,0,0,119.5,113c4.71,0,10.82-3.77,10.82-3.77s.47-12.69,14.11-9.87C144.43,99.35,139.25,81.48,121.38,79.13Z"/><path class="cls-1" d="M74.36,124.51s15.75-32.92,44.2-45.38l-4.7-2.35"/><path class="cls-1" d="M154.77,111.57,144.43,99.35s-14.11-2.86-14.11,9.87c0,1.41,12.23,6.59,14.11,3.77C148.63,106.68,154.77,111.57,154.77,111.57Z"/><path class="cls-1" d="M140.43,128.74c-.43.18,3.17-14.93,3.17-14.93s3.88-7.17,10.94-2.47-3.29,24-3.29,24-.47-5.17-2.36-6.58S143.72,127.33,140.43,128.74Z"/><path class="cls-1" d="M88.23,60.55a23,23,0,0,1,5.83-.89,18.21,18.21,0,0,1,6.4,1.36"/><path class="cls-1" d="M72.31,35.6c-.07-.44,3.22-3.73,9.81-4.67s42.76-1.38,50.79,5.64a15.46,15.46,0,0,1,4.7,6.58"/><path class="cls-1" d="M70,51.75s2.23-2.48,12.11-3.42,40-.48,46.08,3.29,7.68,5.2,7.68,5.2"/><path class="cls-1" d="M103.58,13a5.14,5.14,0,0,0-2.65,2.88c-.47,1.88-2.12,14.52-2.12,14.52"/><path class="cls-1" d="M95.85,47.91s-3.39,17.34-1.51,21.58c0,0,.48,3.29,6.86,9.32"/><path class="cls-1" d="M140.43,128.74v1.41S131,133,132,135.32s2.35,5.18,3.29,5.65,3.29-.94,6.58,0,4.7.47,6.11-.47,3.21-5.9,3.21-5.9"/><path class="cls-1" d="M132,136.26s-.47,3.3,0,4.24,1.88,3.29,2.82,2.82.47-2.35.47-2.35"/><path class="cls-1" d="M138.06,140.73s.49,3.53,0,4.47-3.76-.94-3.29-1.88"/><path class="cls-1" d="M141.37,141s.94,3.76,0,4.7-3.11-1.29-3.11-1.29"/><path class="cls-1" d="M103.44,136.62c8.44-4.69,10.43-4.54,17-2.24s14.8,13,14.35,17a45.37,45.37,0,0,1-1.79,8.07l-2.24-4.93s-10.32-4.48-13.91,6.28,2.25,9,2.25,9-6.73,0-11.21-2.69c-4.16-2.5-13-8.82-10.32-20.63C99.85,136.62,103.44,136.62,103.44,136.62Z"/><path class="cls-1" d="M120,169.81,128.1,190s7.18,3.58,9.87.89S133,159.49,133,159.49"/><path class="cls-1" d="M116.21,78c-4.94,3.29-28.45,12-41.85,41.27"/><path class="cls-1" d="M84.44,77.56s0,7.27,9.9,14.65"/><path class="cls-1" d="M87,78.28s-1.09,3,9.49,12.14"/><path class="cls-1" d="M76.91,119.78c0-.45,20.11-3.6,41.81.8"/><path class="cls-1" d="M118.32,124.51a89.54,89.54,0,0,0-42.94-2"/><path class="cls-1" d="M128.1,190s-2.69,2.69,0,7.17,17,5.83,19.73,4,0-5.83-.89-6.73-5.45-5.6-8.56-5.72"/><path class="cls-1" d="M76.36,125.72c-2-.66-28.57,11-34.68,16.66S37,152.25,37,152.72c0,0,14.89-7.59,13.17,11.29-.47,5.17,34.8-10.35,34.8-10.35l2.35-1.88"/><path class="cls-1" d="M50.24,162.6s-15.15,26.8-18.91,28.68-9.4-.94-9.4-.94-1.42-.47-.95-3.76,16-33.86,16-33.86"/><path class="cls-1" d="M20.89,188.11C7.63,189.64,5.94,196,5.94,196.46c0,0-1.41,5.17,9.87,4.7a50.45,50.45,0,0,0,18.81-4.23s3.12-2.21-.79-8.16"/><path class="cls-1" d="M80.29,76.78c-23.92-2.12-25.92,7.76-25.92,7.76s11.76-2.83,11.76,6.11-9.41,8.93-9.41,8.93,8.41,8.08,17.14,6.86"/><path class="cls-1" d="M59.08,99.11a19.55,19.55,0,0,1-10.35-.47c-6.11,1.88-8-2.82-8-2.82S30.39,93.94,27.1,77.48c0,0,7,1.88,8.93-3.76.15-.45,4.71.47,11.76,12.7l6.58-1.88"/><path class="cls-1" d="M34.15,68.08c-2.82,0,0-4.71,0-4.71S43.56,57.26,45,58.2s.94,3.29.94,3.29L37,70c.15-.47-.46,9.4-9.87,7.52-7.06-1.41-7.53-16-7.53-16s-2.35-12.22-.94-13.64S21,47.38,21,47.38s4.71,12.23,4.71,13.17-.94,1.88-2.35,2.82"/><path class="cls-1" d="M24.5,56.82c1.17,0,1.19-1.44,1.19-1.44s-.47-11.76,0-13.17S27.1,40.8,27.1,40.8c2-1,2.38.06,2.82.94.94,1.88.94,12.7.94,12.7s0,.47,1.41,1.41,1.88-10.35,3.29-12.7S38.85,44,38.85,45c0,1.41-.49,16-1.65,16.46"/><ellipse class="cls-1" cx="79.06" cy="40.7" rx="4.47" ry="5.08"/><circle class="cls-1" cx="123.97" cy="41.74" r="5.17"/></g></svg>