<svg xmlns="http://www.w3.org/2000/svg" viewBox="0 0 165 210"><defs><style>.cls-1{fill:none;stroke:#da3c8f;stroke-miterlimit:10;stroke-width:2px;}</style></defs><title>char_photocop</title><g id="Calque_2" data-name="Calque 2"><path class="cls-1" d="M26,69H134V61H64.17A6.17,6.17,0,0,1,58,54.83v-.66A6.17,6.17,0,0,0,51.83,48H32.17A6.17,6.17,0,0,0,26,54.17Z"/><path class="cls-1" d="M26,99H134V87H87.18c-3.41,0-6.18.09-6.18-3.32V82.05c0-3.89-2.76-7-6.17-7H32.17c-3.41,0-6.17,3.16-6.17,7Z"/><rect class="cls-1" x="26" y="105" width="108" height="23"/><path class="cls-1" d="M47.17,119h64.67a6.17,6.17,0,0,1,6.17,6.17V128a0,0,0,0,1,0,0H41a0,0,0,0,1,0,0v-2.83A6.17,6.17,0,0,1,47.17,119Z"/><rect class="cls-1" x="26" y="135" width="108" height="23"/><path class="cls-1" d="M47.17,149h64.67a6.17,6.17,0,0,1,6.17,6.17V158a0,0,0,0,1,0,0H41a0,0,0,0,1,0,0v-2.83A6.17,6.17,0,0,1,47.17,149Z"/><rect class="cls-1" x="26" y="164" width="108" height="31"/><path class="cls-1" d="M47.17,186h64.67a6.17,6.17,0,0,1,6.17,6.17V195a0,0,0,0,1,0,0H41a0,0,0,0,1,0,0v-2.83A6.17,6.17,0,0,1,47.17,186Z"/><circle class="cls-1" cx="36.5" cy="88.5" r="4.5"/><circle class="cls-1" cx="49.5" cy="88.5" r="4.5"/><line class="cls-1" x1="30" y1="99" x2="30" y2="105"/><line class="cls-1" x1="31" y1="69" x2="31" y2="75"/><line class="cls-1" x1="131" y1="99" x2="131" y2="105"/><line class="cls-1" x1="30" y1="128" x2="30" y2="135"/><line class="cls-1" x1="131" y1="128" x2="131" y2="135"/><line class="cls-1" x1="30" y1="158" x2="30" y2="164"/><line class="cls-1" x1="130" y1="158" x2="130" y2="164"/><line class="cls-1" x1="131" y1="69" x2="131" y2="87"/><path class="cls-1" d="M64.19,41.11h67.05a0,0,0,0,1,0,0V50a0,0,0,0,1,0,0H64.19a3.5,3.5,0,0,1-3.5-3.5V44.61a3.5,3.5,0,0,1,3.5-3.5Z" transform="translate(-7.41 21.1) rotate(-12.08)"/></g></svg>