<svg xmlns="http://www.w3.org/2000/svg" viewBox="0 0 165 210"><defs><style>.cls-1{fill:none;stroke:#da3c8f;stroke-miterlimit:10;stroke-width:2px;}</style></defs><title>char_stagiaire</title><g id="Calque_2" data-name="Calque 2"><path class="cls-1" d="M98.15,88.6c-.31,2.06-2.29,5.72-3.9,6s-2.73-.71-3.58-2c-1.2-1.76-3-3.22-1.81-4.83"/><path class="cls-1" d="M59.45,87.83c.45.85-.81.91-.18,1.74,2.58,3.4-.57,6.43-5.88,5.6-2.53-.4-4.07-3.43-4.77-5"/><path class="cls-1" d="M51.72,154.38c-2.85,1-4.76,9.35-7.56,10.52-1.89.78-2.25,2.52-1.24,4.26a3.18,3.18,0,0,1,.18,2.44,6.23,6.23,0,0,1-1.8,2.24c-1.85,1.63-2.48,1.58-4.29-.1a35.73,35.73,0,0,1-3.46,2.54c-1.84,1.05-2.77.7-4-1a8.41,8.41,0,0,0-1.42-1.3c-.09-.08-.25-.08-.32-.17a40.94,40.94,0,0,1-4.34-5.91c-.44-.86.34-2.56.93-3.69A20.48,20.48,0,0,1,27,161l6.92-2.9c8.3-6.75,9.91-28.8,19.51-32.37-3.48-2.32-7-1.25-10.27-3.82-7.42-5.81-13.08-16.3-15.14-25.63-3-13.62,1.52-25.16,11.18-34.63C47.67,53.36,58.15,49.3,69.9,47.87A55.59,55.59,0,0,1,95.85,51c2.84,1,5.52,2.46,8.46,3.8.67-1.47,1.35-3,2.06-4.53,2.57-5.54,5.37-10.93,10-15,5-4.39,12-2.47,18.12-3.1-.08,2.71-1.64,1.41-1.17,3.73s1.65,9.42,2.72,11.75c-6.32-1.65-8.73-3.27-13.93,0-4.67,2.93-9.62,6.4-10.26,11.75-.19,1.66.65,2,2,1.95,7.31-.41,15.34,1.27,20.61-3.64,1.37-1.28,8.66-3.11,10.06-4.65,3.73,5.66-1.1,9.92,5.42,11.61-10.53,6.08-19.32,3.19-31.54,3.29.66,1.27,1.13,2.21,1.63,3.13,3.28,6,5.34,12.24,5,19.14-.33,8-3.4,14.84-8.3,21a49.14,49.14,0,0,1-18.48,14.21c11.82,5,13.64,20.39,23.15,28.77,1.39-1.25,2.79-1.94,4.36-.78,2,1.51,3.8,3.23,4,6a.27.27,0,0,1,0,.18c-1.59,2.14-3.16,4.3-4.8,6.41-.49.63-1.35,1-1.73,1.69-.71,1.24-1.73,1.77-2.86,1.08a45.47,45.47,0,0,1-6.63-4.71c-.68-.6-.48-2.19-.76-3.74a5,5,0,0,0-.79-.43c-4.65-1.92-9.28-3.93-14-5.68a24.82,24.82,0,0,0-5.68-1m.07-.31c0,.36,8.32,6.6,8.24,6.93-.89,3.73,1,4.67.27,7.77,6.94,7.67,5.17,17.93,7,28,.58,3.18.48,3.33-2.73,3.91a42.09,42.09,0,0,1-16.66-.14c-1.38-.3-1.83-.88-2-2.39a39.85,39.85,0,0,0-2.11-9.54c-3.15-7.86.24-10.69-8.52-10.73a21.76,21.76,0,0,0-6.44,1c-7.47,2.32-3.65,7.7-4.81,15.25a32.84,32.84,0,0,0-.38,4.54c0,1-.28,1.49-1.34,1.73a46.65,46.65,0,0,1-18.83.09c-1.39-.25-1.86-1-1.28-2.64a20.72,20.72,0,0,0,.93-4.27c1.13-9.66-2-17.54,4.4-24.39a10.2,10.2,0,0,0,3.07-7.36c.06-4.61.7-9.2,1.1-13.8m61-55.11c-16-4.73-48.74-6-64.76-1.39-5.25,1.49-5.28,7-15.82,1.94-4.51-2.17,1.33,1.11.09,4.86C36.54,101,41,101,45.8,102.74c8.48,3.15,17.32,4.15,27.23,4.25,1.44-.06,3.81-.11,6.17-.29,8.79-.68,17.31-2.44,25.24-6.46a20.66,20.66,0,0,0,9.19-8.55"/></g></svg>