<svg xmlns="http://www.w3.org/2000/svg" viewBox="0 0 240 360"><defs><style>.cls-1{fill:#010101;}.cls-2{fill:#d01208;}.cls-3{fill:none;stroke:#d01208;stroke-miterlimit:10;stroke-width:3px;}</style></defs><title>bosscard</title><g id="Calque_2" data-name="Calque 2"><rect class="cls-1" x="1.69" y="2" width="237" height="357" rx="10.5" ry="10.5"/><path class="cls-2" d="M228.19,3.5a9,9,0,0,1,9,9v336a9,9,0,0,1-9,9h-216a9,9,0,0,1-9-9V12.5a9,9,0,0,1,9-9h216m0-3h-216a12,12,0,0,0-12,12v336a12,12,0,0,0,12,12h216a12,12,0,0,0,12-12V12.5a12,12,0,0,0-12-12Z"/><path class="cls-2" d="M166.16,17.24c-7.24,6.26-9.39-.94-12.47-3.61-3.08,2.67-5.23,9.87-12.47,3.61-2.76-2.37-2.88,27.28,12.47,27.28S168.92,14.87,166.16,17.24Z"/><path class="cls-3" d="M167.37,322.5H41.71a11,11,0,0,1-10.9-11v-201"/><path class="cls-3" d="M72.81,58.5H198.47a11,11,0,0,1,10.9,11v201"/></g></svg>