<svg xmlns="http://www.w3.org/2000/svg" viewBox="0 0 240 360"><defs><style>.cls-1{fill:#010101;}.cls-2{fill:#ededed;}.cls-3{fill:none;stroke:#ededed;stroke-miterlimit:10;stroke-width:3px;}</style></defs><title>cardback</title><g id="Calque_2" data-name="Calque 2"><rect class="cls-1" x="1.5" y="1.5" width="237" height="357" rx="10.5" ry="10.5"/><path class="cls-2" d="M228,3a9,9,0,0,1,9,9V348a9,9,0,0,1-9,9H12a9,9,0,0,1-9-9V12a9,9,0,0,1,9-9H228m0-3H12A12,12,0,0,0,0,12V348a12,12,0,0,0,12,12H228a12,12,0,0,0,12-12V12A12,12,0,0,0,228,0Z"/><rect class="cls-3" x="38.81" y="37.5" width="162" height="286"/><rect class="cls-3" x="30.71" y="23.2" width="178.2" height="314.6"/></g></svg>