<svg xmlns="http://www.w3.org/2000/svg" viewBox="0 0 240 360"><defs><style>.cls-1{fill:#010101;}.cls-2{fill:#88c93b;}.cls-3{fill:none;stroke:#88c93b;stroke-miterlimit:10;stroke-width:3px;}</style></defs><title>headlcard</title><g id="Calque_2" data-name="Calque 2"><rect class="cls-1" x="1.69" y="2" width="237" height="357" rx="10.5" ry="10.5"/><path class="cls-2" d="M228.19,3.5a9,9,0,0,1,9,9v336a9,9,0,0,1-9,9h-216a9,9,0,0,1-9-9V12.5a9,9,0,0,1,9-9h216m0-3h-216a12,12,0,0,0-12,12v336a12,12,0,0,0,12,12h216a12,12,0,0,0,12-12V12.5a12,12,0,0,0-12-12Z"/><path class="cls-2" d="M166.16,17.24c-7.24,6.26-9.39-.94-12.47-3.61-3.08,2.67-5.23,9.87-12.47,3.61-2.76-2.37-2.88,27.28,12.47,27.28S168.92,14.87,166.16,17.24Z"/><path class="cls-3" d="M167.37,322.5H41.71a11,11,0,0,1-10.9-11v-201"/><path class="cls-3" d="M72.81,58.5H198.47a11,11,0,0,1,10.9,11v201"/></g><g id="Calque_3" data-name="Calque 3"><path class="cls-2" d="M178,260.27a2.42,2.42,0,0,0-3.35.64,44.13,44.13,0,0,1-36.52,19.41,2.41,2.41,0,1,0,0,4.82,48.92,48.92,0,0,0,40.51-21.52A2.41,2.41,0,0,0,178,260.27Z"/><path class="cls-2" d="M184.7,237.59a2.4,2.4,0,0,0-2.59,2.21,43.9,43.9,0,0,1-3.26,13.41,2.41,2.41,0,0,0,1.29,3.16,2.52,2.52,0,0,0,.93.18,2.39,2.39,0,0,0,2.22-1.48,48.33,48.33,0,0,0,3.62-14.89A2.41,2.41,0,0,0,184.7,237.59Z"/><path class="cls-2" d="M101,189.59H83.78a8.24,8.24,0,1,1,0-16.47H91.7a2.41,2.41,0,0,0,0-4.82H83.78a13.06,13.06,0,1,0,0,26.11H101a2.41,2.41,0,0,0,0-4.82Z"/><path class="cls-2" d="M109.11,144.5H98.61a2.41,2.41,0,1,0,0,4.82H109.1a9.49,9.49,0,0,1,0,19H99.81a2.41,2.41,0,1,0,0,4.82h9.29a14.31,14.31,0,1,0,0-28.62Z"/><path class="cls-2" d="M160.46,176.26H141.32a7.24,7.24,0,1,1,0-14.47H148a2.41,2.41,0,1,0,0-4.82h-6.65a12.06,12.06,0,1,0,0,24.11h19.14a5.68,5.68,0,0,1,5.67,5.67V192a2.41,2.41,0,0,0,4.82,0v-5.25A10.51,10.51,0,0,0,160.46,176.26Z"/><path class="cls-2" d="M188.43,230.06h-2.05a5.07,5.07,0,0,0,0-.68c0-2.46-1.7-4.3-3.07-5.78a9.28,9.28,0,0,1-1.71-2.2,9.19,9.19,0,0,1-.31-2.62c-.06-2.05-.15-4.6-2-6.41s-4.36-1.89-6.41-2a8.84,8.84,0,0,1-2.62-.3,9.55,9.55,0,0,1-2.2-1.71c-1.48-1.37-3.32-3.08-5.78-3.08s-4.3,1.71-5.78,3.07a9.36,9.36,0,0,1-2.2,1.72,8.89,8.89,0,0,1-2.62.3,17.56,17.56,0,0,0-3.38.35,21,21,0,0,0-34.48,1.56,20.9,20.9,0,0,0-10.07-2.57,22.33,22.33,0,0,0-3.08.22,10.23,10.23,0,0,0-19.12-1.53A20.72,20.72,0,0,0,74.06,207,21.1,21.1,0,0,0,53.41,224,10.21,10.21,0,0,0,51,230.38a6.16,6.16,0,0,0-4.22,5.84A56.3,56.3,0,0,0,61.4,274.06,2.41,2.41,0,1,0,65,270.82a51.5,51.5,0,0,1-8.12-12H77.75a2.41,2.41,0,0,0,0-4.82h-23a51.78,51.78,0,0,1-2-6.69h76.73a2.42,2.42,0,0,0,0-4.83H52a50.26,50.26,0,0,1-.39-6.27A1.35,1.35,0,0,1,53,234.88H188.43a1.34,1.34,0,0,1,1.34,1.34,51.67,51.67,0,0,1-51.62,51.62H103.26a51.11,51.11,0,0,1-31.55-10.78,2.41,2.41,0,0,0-2.95,3.81,56.14,56.14,0,0,0,17.67,9.25v3.11A8.79,8.79,0,0,0,95.21,302h51a8.79,8.79,0,0,0,8.78-8.78V290.1a56.55,56.55,0,0,0,39.62-53.88A6.17,6.17,0,0,0,188.43,230.06ZM90.92,207.34a5.43,5.43,0,0,1,5.19,3.88,20.94,20.94,0,0,0-5.81,3.47,21.34,21.34,0,0,0-4.38-4A5.42,5.42,0,0,1,90.92,207.34ZM55.87,230.06a5.41,5.41,0,0,1,10.78,0Zm19.51,0H72.75v-2a1.32,1.32,0,1,1,2.63,0Zm7.42,0H80.21v-2a6.14,6.14,0,0,0-10.9-3.87,9.79,9.79,0,0,0-1.89-1.86,8.77,8.77,0,0,1,15.42,5.73v1.15h0C82.82,229.5,82.81,229.78,82.8,230.06Zm2.62-9.45a13.58,13.58,0,0,0-22.57-.21,10.44,10.44,0,0,0-1.59-.12,10.56,10.56,0,0,0-1.49.11A16.22,16.22,0,0,1,87,218.22,20.69,20.69,0,0,0,85.42,220.61Zm17.33,9.45a1.31,1.31,0,0,1,1.09-.57,1.3,1.3,0,0,1,1.08.57Zm7.18,0a6.13,6.13,0,0,0-12.18,0H95.09a8.78,8.78,0,0,1,17.49,0Zm7.48,0a13.59,13.59,0,0,0-27.15,0H87.62a16.23,16.23,0,0,1,32.43,0Zm15.61,0h-2.64v-6.48a1.32,1.32,0,1,1,2.64,0Zm7.45,0h-2.63v-6.48a6.14,6.14,0,0,0-12.28,0v6.48h-.68a20.8,20.8,0,0,0-1.85-7.89,8.78,8.78,0,0,1,17.44,1.41v6.48Zm7.46,0H145.3v-6.48a13.6,13.6,0,0,0-25.53-6.52,20.8,20.8,0,0,0-1.92-1.95,16.23,16.23,0,0,1,30.08,8.47Zm16.47,0h-4.06a2.2,2.2,0,0,1-.11-.68,2.14,2.14,0,0,1,4.28,0A2.2,2.2,0,0,1,164.4,230.06Zm7.72,0H169.3c0-.23,0-.45,0-.68a7,7,0,0,0-13.92,0c0,.23,0,.45,0,.68h-2.68v-2.45a9.78,9.78,0,0,1,19.39,1.77C172.15,229.61,172.14,229.83,172.12,230.06Zm9.22,0H177c0-.23,0-.45,0-.68a14.58,14.58,0,0,0-24.74-10.48,21.13,21.13,0,0,0-1.19-3.63l.88,0a11.92,11.92,0,0,0,4.31-.66,12.85,12.85,0,0,0,3.64-2.64c.81-.75,1.93-1.78,2.5-1.78s1.69,1,2.5,1.78a12.85,12.85,0,0,0,3.64,2.64,11.92,11.92,0,0,0,4.31.66c1.2,0,2.69.09,3.15.55s.51,1.95.55,3.15a11.92,11.92,0,0,0,.66,4.31,12.85,12.85,0,0,0,2.64,3.64c.75.81,1.78,1.93,1.78,2.5A1.5,1.5,0,0,1,181.34,230.06Zm-31.18,63.17a4,4,0,0,1-4,4h-51a4,4,0,0,1-4-4v-1.84a57,57,0,0,0,12,1.27h34.89a56.58,56.58,0,0,0,12-1.29Z"/></g></svg>