<svg xmlns="http://www.w3.org/2000/svg" viewBox="0 0 80 80"><defs><style>.cls-1{fill:#e6e125;}</style></defs><title>item-atk</title><g id="Calque_2" data-name="Calque 2"><path class="cls-1" d="M2.27,2A34.86,34.86,0,0,1,19.57.27,46.1,46.1,0,0,1,44.3,12a44.51,44.51,0,0,1,5.26,5.63,23,23,0,0,1,1.83,2.75c1.36,2.41,3.44,3.17,6.07,2.82a15,15,0,0,0,6.71-2.88,38.81,38.81,0,0,0,8.57-8.64,31.33,31.33,0,0,0,4.74-8.34A2.32,2.32,0,0,1,78,2.71a3.59,3.59,0,0,1,.43.69,33.39,33.39,0,0,1,1.69,11.74,41,41,0,0,1-2.18,11.5,50.69,50.69,0,0,1-9.3,16.63,46.48,46.48,0,0,1-10.55,9.12A2.1,2.1,0,0,0,57,54.64,25.59,25.59,0,0,0,62.53,67,34.51,34.51,0,0,0,76.31,77.1a3.78,3.78,0,0,1,.61.28c.14.09.32.25.31.37s-.2.28-.35.33c-.77.24-1.55.49-2.34.67A39.05,39.05,0,0,1,56,78.48c-12-3.13-21.3-10.07-28.19-20.3a3.25,3.25,0,0,0-3.55-1.44,18.48,18.48,0,0,0-5.4,1.9A33.18,33.18,0,0,0,5.64,70.43,28.41,28.41,0,0,0,2.73,76.3a3.31,3.31,0,0,1-.54.72,4,4,0,0,1-.47-.78A41.54,41.54,0,0,1,.49,59.35,39.91,39.91,0,0,1,5.2,45.3,46.92,46.92,0,0,1,17.65,30.41c1-.8,2.12-1.54,3.21-2.26a4.7,4.7,0,0,0,2.26-5.46,17.6,17.6,0,0,0-2.34-5.43A33.56,33.56,0,0,0,11.7,7,33.38,33.38,0,0,0,3.11,2.31C2.84,2.22,2.58,2.1,2.27,2ZM40.07,32A7.83,7.83,0,1,0,47.91,40,7.8,7.8,0,0,0,40.07,32Z"/></g></svg>