<svg xmlns="http://www.w3.org/2000/svg" viewBox="0 0 54.33 53.5"><defs><style>.cls-1{fill:#1592d5;}</style></defs><title>shuriken-particle</title><g id="Calque_2" data-name="Calque 2"><path class="cls-1" d="M1.71,1.43A23.72,23.72,0,0,1,13.41.27,31.12,31.12,0,0,1,30.13,8.2,29.73,29.73,0,0,1,33.68,12a14.32,14.32,0,0,1,1.24,1.86A3.71,3.71,0,0,0,39,15.77a10.18,10.18,0,0,0,4.54-1.94A26.77,26.77,0,0,0,49.36,8a21,21,0,0,0,3.2-5.64c.06-.16.23-.28.35-.42a2.29,2.29,0,0,1,.29.47,22.52,22.52,0,0,1,1.14,7.94,27.82,27.82,0,0,1-1.47,7.77,34.24,34.24,0,0,1-6.29,11.24,31.37,31.37,0,0,1-7.13,6.17A1.42,1.42,0,0,0,38.71,37a17.26,17.26,0,0,0,3.75,8.32,23.29,23.29,0,0,0,9.31,6.87,3.17,3.17,0,0,1,.42.19c.09.06.21.17.2.25s-.13.19-.23.22c-.53.16-1,.33-1.59.45A26.33,26.33,0,0,1,38,53.15,32.1,32.1,0,0,1,19,39.42a2.21,2.21,0,0,0-2.41-1,12.21,12.21,0,0,0-3.65,1.28,22.37,22.37,0,0,0-8.93,8,18.6,18.6,0,0,0-2,4,2.06,2.06,0,0,1-.37.48,2.75,2.75,0,0,1-.31-.52A28.08,28.08,0,0,1,.51,40.22a27,27,0,0,1,3.18-9.5,31.82,31.82,0,0,1,8.42-10.07c.7-.54,1.43-1,2.17-1.53a3.17,3.17,0,0,0,1.53-3.69,12,12,0,0,0-1.58-3.67A22.81,22.81,0,0,0,8.09,4.82,22.79,22.79,0,0,0,2.28,1.65ZM27.27,21.75a5.29,5.29,0,1,0,5.3,5.37A5.29,5.29,0,0,0,27.27,21.75Z"/></g></svg>